<svg xmlns="http://www.w3.org/2000/svg" version="1.1" xmlns:xlink="http://www.w3.org/1999/xlink" xmlns:svgjs="http://svgjs.dev/svgjs" width="1000" height="1000" viewBox="0 0 1000 1000"><rect width="1000" height="1000" fill="#000000"></rect><g transform="matrix(0.7,0,0,0.7,149.57575757575756,282.1265587044535)"><svg viewBox="0 0 396 247" data-background-color="#111111" preserveAspectRatio="xMidYMid meet" height="623" width="1000" xmlns="http://www.w3.org/2000/svg" xmlns:xlink="http://www.w3.org/1999/xlink"><g id="tight-bounds" transform="matrix(1,0,0,1,0.2400000000000091,-0.09999999999999432)"><svg viewBox="0 0 395.52 247.2" height="247.2" width="395.52"><g><svg></svg></g><g><svg viewBox="0 0 395.52 247.2" height="247.2" width="395.52"><g><path xmlns="http://www.w3.org/2000/svg" d="M55.039 247.2l35.844-62.084 2.329 0-34.616 59.957h278.328l-34.616-59.957 2.329 0 35.844 62.084zM197.76 0l35.844 62.084-2.328 0-33.516-58.051-33.516 58.051-2.328 0z" fill="#ffffff" fill-rule="nonzero" stroke="none" stroke-width="1" stroke-linecap="butt" stroke-linejoin="miter" stroke-miterlimit="10" stroke-dasharray="" stroke-dashoffset="0" font-family="none" font-weight="none" font-size="none" text-anchor="none" style="mix-blend-mode: normal" data-fill-palette-color="tertiary"></path></g><g transform="matrix(1,0,0,1,0,79.65990816038351)"><svg viewBox="0 0 395.52 87.88018367923296" height="87.88018367923296" width="395.52"><g><svg viewBox="0 0 395.52 87.88018367923296" height="87.88018367923296" width="395.52"><g><svg viewBox="0 0 473.75937085271016 105.26410935046019" height="87.88018367923296" width="395.52"><g transform="matrix(1,0,0,1,78.2393708527102,0)"><svg viewBox="0 0 395.52 105.26410935046019" height="105.26410935046019" width="395.52"><g id="textblocktransform"><svg viewBox="0 0 395.52 105.26410935046019" height="105.26410935046019" width="395.52" id="textblock"><g><svg viewBox="0 0 395.52 74.66319262909794" height="74.66319262909794" width="395.52"><g transform="matrix(1,0,0,1,0,0)"><svg width="395.52" viewBox="1.9499998092651367 -41.349998474121094 234.3300018310547 45.04999923706055" height="74.66319262909794" data-palette-color="#ffdc00"><path d="M14.6-8.75L15.75-8.75 25.25-36 35-36 21.35 0 5.35 0 4.95-36 14.75-36 14.6-8.75ZM47.1-24.75L47.1-24.75Q52.5-24.75 55.25-22.4L55.25-22.4Q57.4-20.55 57.4-17.25L57.4-17.25Q57.4-16.15 57.15-14.85L57.15-14.85 56.1-9Q55.15-3.7 51.67-1.5 48.2 0.7 42.4 0.7 36.6 0.7 33.9-1.5L33.9-1.5Q31.9-3.15 31.9-6.45L31.9-6.45Q31.9-7.6 32.15-9L32.15-9 33.2-14.85Q34.95-24.75 47.1-24.75ZM47.8-10.1L48.45-13.85Q48.55-14.35 48.55-15.13 48.55-15.9 47.9-16.85 47.25-17.8 45.62-17.8 44-17.8 42.9-16.73 41.8-15.65 41.5-13.85L41.5-13.85 40.85-10.1Q40.75-9.6 40.75-8.83 40.75-8.05 41.4-7.15 42.05-6.25 43.67-6.25 45.3-6.25 46.4-7.38 47.5-8.5 47.8-10.1L47.8-10.1ZM70.9-6.4L70.9-6.4Q72.05-6.4 72.95-6.9L72.95-6.9 72.7-1.25Q70.34 0.7 67.34 0.7L67.34 0.7Q62.8 0.7 61.45-1.4L61.45-1.4Q60.55-2.8 60.55-4.38 60.55-5.95 60.75-7.15L60.75-7.15 63.75-24.05 72.25-24.05 69.45-8.3Q69.4-8 69.4-7.75L69.4-7.75Q69.4-6.4 70.9-6.4ZM64.75-32.2L64.75-32.2Q64.75-35.4 66.17-36.88 67.59-38.35 70.59-38.35L70.59-38.35Q74.8-38.35 74.8-34.65L74.8-34.65Q74.8-31.5 73.37-30.05 71.95-28.6 68.9-28.6L68.9-28.6Q64.75-28.6 64.75-32.2ZM86.09 0.7L86.09 0.7Q75.69 0.7 75.69-6.5L75.69-6.5Q75.69-7.5 75.89-8.65L75.89-8.65 76.94-14.85Q77.74-19.65 81.32-22.2 84.89-24.75 90.39-24.8L90.39-24.8Q101.04-24.8 101.04-17.4L101.04-17.4Q101.04-15.8 100.67-14.53 100.29-13.25 99.89-12.8L99.89-12.8 99.49-12.3 90.99-12.3Q92.24-13.4 92.24-14.9L92.24-14.9Q92.24-17.6 89.54-17.6L89.54-17.6Q87.94-17.6 86.79-16.65 85.64-15.7 85.29-13.75L85.29-13.75 84.64-10.1Q84.54-9.6 84.54-9.15L84.54-9.15Q84.54-6.5 87.84-6.5L87.84-6.5Q88.94-6.5 89.82-7.2 90.69-7.9 90.84-8.75L90.84-8.75 99.14-8.65Q97.49 0.7 86.09 0.7ZM113.59 0.7L113.59 0.7Q103.19 0.7 103.19-6.5L103.19-6.5Q103.19-7.5 103.39-8.65L103.39-8.65 104.44-14.85Q105.29-19.65 108.87-22.23 112.44-24.8 118.34-24.8L118.34-24.8Q128.39-24.8 128.39-17.2L128.39-17.2Q128.39-16.1 128.19-14.8L128.19-14.8 127.59-11.25 112.34-11.25 112.14-10.1Q112.04-9.5 112.04-9L112.04-9Q112.04-6.25 115.29-6.25L115.29-6.25Q116.49-6.25 117.34-7 118.19-7.75 118.34-8.75L118.34-8.75 126.64-8.65Q124.99 0.7 113.59 0.7ZM112.84-14.3L119.59-14.3Q119.79-15.15 119.79-15.88 119.79-16.6 119.14-17.35 118.49-18.1 117.07-18.1 115.64-18.1 114.47-17.15 113.29-16.2 112.84-14.3L112.84-14.3ZM143.39-8.75L144.54-8.75 154.04-36 163.79-36 150.14 0 134.14 0 133.74-36 143.54-36 143.39-8.75ZM188.64-7.8L187.24 0 162.14 0 168.49-36 193.59-36 192.19-28.2 176.09-28.2 174.94-21.45 188.24-21.45 186.84-13.65 173.54-13.65 172.54-7.8 188.64-7.8ZM199.33-36L208.33-36 202.03 0 192.98 0 199.33-36ZM233.28-7.8L231.88 0 209.08 0 215.43-36 224.43-36 219.48-7.8 233.28-7.8Z" opacity="1" transform="matrix(1,0,0,1,0,0)" fill="#ffffff" class="wordmark-text-0" data-fill-palette-color="primary" id="text-0"></path></svg></g></svg></g><g transform="matrix(1,0,0,1,2.5,84.32166424574247)"><svg viewBox="0 0 390.52 20.94244510471773" height="20.94244510471773" width="390.52"><g transform="matrix(1,0,0,1,0,0)"><svg width="390.52" viewBox="-13.800000190734863 -34.25 690.8999633789062 38" height="20.94244510471773" data-palette-color="#f3d210"><path d="M12.3-21.65L11.9-19.4-9.3-21.65 12.3-21.65ZM11.45-16.85L11.05-14.6-10.1-16.85 11.45-16.85ZM14-31.25L13.6-29-7.55-31.25 14-31.25ZM12.75-24.2L-8.4-26.45 13.15-26.45 12.75-24.2ZM-10.8-12.05L10.6-12.05Q10.4-10.4 10.35-9.8L10.35-9.8-10.8-12.05ZM-10.75-7.25L10.25-7.25Q10.25-6.05 10.4-5L10.4-5-10.75-7.25ZM-8.45-2.4L11.1-2.4Q11.75-1 12.7-0.15L12.7-0.15-8.45-2.4ZM20.9-7.8L24.3-7.8Q26.05-7.8 26.8-8.28 27.55-8.75 27.85-10.45L27.85-10.45 31.55-31.25 41.05-31.25 37.95-13.7Q37.2-9.45 36.23-6.85 35.25-4.25 33.5-2.45 31.75-0.65 29.18 0.05 26.6 0.75 22.65 0.75L22.65 0.75Q16.6 0.75 14.18-1.07 11.75-2.9 11.75-7.35L11.75-7.35Q11.75-9.8 12.45-13.7L12.45-13.7 15.55-31.25 25.05-31.25 20.9-7.8ZM73.2 0L66.4 0 61.25-9.9 61.05-9.9 59.3 0 50.9 0 55.5-26.45 62.3-26.45 67.5-16.6 67.8-16.6 69.5-26.45 77.85-26.45 73.2 0ZM49.65-2.4L49.25-0.15 28.05-2.4 49.65-2.4ZM51.35-12.05L50.95-9.8 29.75-12.05 51.35-12.05ZM52.2-16.85L51.8-14.6 30.6-16.85 52.2-16.85ZM53.05-21.65L52.65-19.4 31.45-21.65 53.05-21.65ZM53.85-26.45L53.5-24.2 32.3-26.45 53.85-26.45ZM50.5-7.25L50.1-5 28.9-7.25 50.5-7.25ZM92.85-26.45L102.1-26.45 102.1-11.35 102.3-11.35 108.1-26.45 117.15-26.45 106.45 0 94.3 0 92.85-26.45ZM92.65-0.15L71.6-2.4 92.5-2.4 92.65-0.15ZM92.35-5L71.3-7.25 92.25-7.25 92.35-5ZM91.35-24.2L70.15-26.45 91.2-26.45 91.35-24.2ZM91.6-19.4L70.45-21.65 91.5-21.65 91.6-19.4ZM91.85-14.6L70.75-16.85 91.7-16.85 91.85-14.6ZM92.1-9.8L71.05-12.05 91.95-12.05 92.1-9.8ZM144.19-15.55L143.34-10.75 135.89-10.75 135.29-7.35 144.54-7.35 143.24 0 125.59 0 130.19-26.45 147.79-26.45 145.44-18.95 137.29-18.95 136.69-15.55 144.19-15.55ZM124.34-2.4L123.94-0.15 102.74-2.4 124.34-2.4ZM126.04-12.05L125.64-9.8 104.44-12.05 126.04-12.05ZM126.89-16.85L126.49-14.6 105.29-16.85 126.89-16.85ZM127.74-21.65L127.34-19.4 106.14-21.65 127.74-21.65ZM128.54-26.45L128.19-24.2 106.99-26.45 128.54-26.45ZM125.19-7.25L124.79-5 103.59-7.25 125.19-7.25ZM167.14 0L158.39 0 162.99-26.45 171.79-26.45 167.14 0ZM157.14-2.4L156.74-0.15 135.54-2.4 157.14-2.4ZM158.84-12.05L158.44-9.8 137.24-12.05 158.84-12.05ZM159.69-16.85L159.29-14.6 138.09-16.85 159.69-16.85ZM160.54-21.65L160.14-19.4 138.94-21.65 160.54-21.65ZM161.34-26.45L160.99-24.2 139.79-26.45 161.34-26.45ZM157.99-7.25L157.59-5 136.39-7.25 157.99-7.25ZM200.39-7.35L199.09 0 182.84 0 187.44-26.45 196.24-26.45 192.89-7.35 200.39-7.35ZM181.59-2.4L181.19-0.15 159.99-2.4 181.59-2.4ZM183.29-12.05L182.89-9.8 161.69-12.05 183.29-12.05ZM184.14-16.85L183.74-14.6 162.54-16.85 184.14-16.85ZM184.99-21.65L184.59-19.4 163.39-21.65 184.99-21.65ZM185.79-26.45L185.44-24.2 164.24-26.45 185.79-26.45ZM182.44-7.25L182.04-5 160.84-7.25 182.44-7.25ZM223.08-2.4L222.68-0.15 201.48-2.4 223.08-2.4ZM223.93-7.25L223.53-5 202.33-7.25 223.93-7.25ZM221.08-21.65L221.53-19.4 200.33-21.65 221.08-21.65ZM220.08-26.45L220.53-24.2 199.33-26.45 220.08-26.45ZM222.08-16.85L222.53-14.6 201.33-16.85 222.08-16.85ZM223.03-12.05L223.53-9.8 202.33-12.05 223.03-12.05ZM221.58-26.45L230.18-26.45 231.28-16.85 231.58-16.85 235.73-26.45 244.48-26.45 233.88-7.55 232.63 0 224.18 0 225.48-7.55 221.58-26.45ZM268.18-26.95L268.18-26.95Q273.58-26.95 275.88-24.88 278.18-22.8 278.18-18.4L278.18-18.4Q278.18-16.25 277.63-13.2L277.63-13.2Q276.38-6 273.23-2.7 270.08 0.6 263.33 0.6L263.33 0.6Q258.03 0.6 255.78-1.48 253.53-3.55 253.53-7.9L253.53-7.9Q253.53-10.15 254.08-13.2L254.08-13.2Q255.33-20.4 258.43-23.68 261.53-26.95 268.18-26.95ZM261.83-7L264.78-7Q266.23-7 266.96-7.35 267.68-7.7 267.93-8.9L267.93-8.9 269.83-19.35 266.78-19.35Q265.38-19.35 264.61-19 263.83-18.65 263.68-17.5L263.68-17.5 261.83-7ZM232.38-12.05L252.33-12.05Q252.13-10.5 252.08-9.95L252.08-9.95 232.38-12.05ZM233.28-16.85L253.28-16.85 252.83-14.75 233.28-16.85ZM232.58-7.25L252.03-7.25Q252.03-6.45 252.23-5.15L252.23-5.15 232.58-7.25ZM235.28-21.65L255.03-21.65Q254.43-20.35 254.18-19.65L254.18-19.65 235.28-21.65ZM236.93-2.4L253.08-2.4Q253.68-1.2 254.38-0.55L254.38-0.55 236.93-2.4ZM241.98-26.45L259.38-26.45Q258.18-25.75 257.33-24.8L257.33-24.8 241.98-26.45ZM291.33-12.05L290.93-9.8 269.73-12.05 291.33-12.05ZM292.18-16.85L291.78-14.6 270.58-16.85 292.18-16.85ZM293.03-21.65L292.63-19.4 271.43-21.65 293.03-21.65ZM293.83-26.45L293.48-24.2 272.28-26.45 293.83-26.45ZM269.58-7.25L290.73-7.25 290.73-6.25Q290.73-5.4 290.78-5L290.78-5 269.58-7.25ZM292.68-0.15L292.68-0.15 271.48-2.4 291.23-2.4Q291.78-1 292.68-0.15ZM300.43-7L302.93-7Q304.28-7 304.8-7.33 305.33-7.65 305.53-8.9L305.53-8.9 308.68-26.45 317.08-26.45 314.48-11.55Q313.28-4.55 310.6-1.98 307.93 0.6 301.48 0.6L301.48 0.6Q296.33 0.6 294.28-0.93 292.23-2.45 292.23-6.25L292.23-6.25Q292.23-8.35 292.78-11.55L292.78-11.55 295.43-26.45 303.83-26.45 300.43-7ZM331.83-26.45L344.53-26.45Q351.83-26.45 351.83-19.85L351.83-19.85Q351.83-16.85 350.63-13.63 349.43-10.4 346.58-8.8L346.58-8.8 349.43 0 340.08 0 338.18-7.7 336.98-7.7 335.63 0 327.23 0 331.83-26.45ZM342.38-16.05L342.68-17.8Q342.68-17.85 342.73-18.3L342.73-18.3Q342.73-19.15 340.08-19.15L340.08-19.15 338.98-19.15 338.18-14.55 339.78-14.55Q342.08-14.55 342.38-16.05L342.38-16.05ZM325.98-2.4L325.58-0.15 304.38-2.4 325.98-2.4ZM327.68-12.05L327.28-9.8 306.08-12.05 327.68-12.05ZM328.53-16.85L328.13-14.6 306.93-16.85 328.53-16.85ZM329.38-21.65L328.98-19.4 307.78-21.65 329.38-21.65ZM330.18-26.45L329.83-24.2 308.63-26.45 330.18-26.45ZM326.83-7.25L326.43-5 305.23-7.25 326.83-7.25ZM395.77-26.45L394.42-18.95 389.02-18.95 385.72 0 376.92 0 380.22-18.95 374.67-18.95 376.02-26.45 395.77-26.45ZM375.82-2.4L375.42-0.15 354.22-2.4 375.82-2.4ZM377.52-12.05L377.12-9.8 355.92-12.05 377.52-12.05ZM378.37-16.85L377.97-14.6 356.77-16.85 378.37-16.85ZM373.57-21.65L373.17-19.4 351.97-21.65 373.57-21.65ZM374.37-26.45L374.02-24.2 352.82-26.45 374.37-26.45ZM376.67-7.25L376.27-5 355.07-7.25 376.67-7.25ZM426.87 0L418.47 0 420.02-9.15 414.42-9.15 412.82 0 404.42 0 409.02-26.45 417.47-26.45 415.82-17.3 421.47-17.3 423.07-26.45 431.52-26.45 426.87 0ZM403.17-2.4L402.77-0.15 381.57-2.4 403.17-2.4ZM404.87-12.05L404.47-9.8 383.27-12.05 404.87-12.05ZM405.72-16.85L405.32-14.6 384.12-16.85 405.72-16.85ZM406.57-21.65L406.17-19.4 384.97-21.65 406.57-21.65ZM407.37-26.45L407.02-24.2 385.82-26.45 407.37-26.45ZM404.02-7.25L403.62-5 382.42-7.25 404.02-7.25ZM458.27-26.95L458.27-26.95Q463.67-26.95 465.97-24.88 468.27-22.8 468.27-18.4L468.27-18.4Q468.27-16.25 467.72-13.2L467.72-13.2Q466.47-6 463.32-2.7 460.17 0.6 453.42 0.6L453.42 0.6Q448.12 0.6 445.87-1.48 443.62-3.55 443.62-7.9L443.62-7.9Q443.62-10.15 444.17-13.2L444.17-13.2Q445.42-20.4 448.52-23.68 451.62-26.95 458.27-26.95ZM451.92-7L454.87-7Q456.32-7 457.04-7.35 457.77-7.7 458.02-8.9L458.02-8.9 459.92-19.35 456.87-19.35Q455.47-19.35 454.69-19 453.92-18.65 453.77-17.5L453.77-17.5 451.92-7ZM422.47-12.05L442.42-12.05Q442.22-10.5 442.17-9.95L442.17-9.95 422.47-12.05ZM423.37-16.85L443.37-16.85 442.92-14.75 423.37-16.85ZM422.67-7.25L442.12-7.25Q442.12-6.45 442.32-5.15L442.32-5.15 422.67-7.25ZM425.37-21.65L445.12-21.65Q444.52-20.35 444.27-19.65L444.27-19.65 425.37-21.65ZM427.02-2.4L443.17-2.4Q443.77-1.2 444.47-0.55L444.47-0.55 427.02-2.4ZM432.07-26.45L449.47-26.45Q448.27-25.75 447.42-24.8L447.42-24.8 432.07-26.45ZM481.41-12.05L481.01-9.8 459.81-12.05 481.41-12.05ZM482.26-16.85L481.86-14.6 460.66-16.85 482.26-16.85ZM483.11-21.65L482.71-19.4 461.51-21.65 483.11-21.65ZM483.91-26.45L483.56-24.2 462.36-26.45 483.91-26.45ZM459.66-7.25L480.81-7.25 480.81-6.25Q480.81-5.4 480.86-5L480.86-5 459.66-7.25ZM482.76-0.15L482.76-0.15 461.56-2.4 481.31-2.4Q481.86-1 482.76-0.15ZM490.51-7L493.01-7Q494.36-7 494.89-7.33 495.41-7.65 495.61-8.9L495.61-8.9 498.76-26.45 507.16-26.45 504.56-11.55Q503.36-4.55 500.69-1.98 498.01 0.6 491.56 0.6L491.56 0.6Q486.41 0.6 484.36-0.93 482.31-2.45 482.31-6.25L482.31-6.25Q482.31-8.35 482.86-11.55L482.86-11.55 485.51-26.45 493.91-26.45 490.51-7ZM539.86-15.55L537.36-1.4Q532.26 0.6 526.96 0.6 521.66 0.6 519.41-1.48 517.16-3.55 517.16-7.9L517.16-7.9Q517.16-10.05 517.86-14.05 518.56-18.05 520.01-20.9L520.01-20.9Q523.16-26.95 532.76-26.95L532.76-26.95Q538.36-26.95 540.56-25.85L540.56-25.85 538.01-18.9Q534.86-19.6 532.34-19.6 529.81-19.6 528.76-19.25 527.71-18.9 527.51-17.9L527.51-17.9 525.41-6.4 527.71-6.4Q528.96-6.4 529.64-6.68 530.31-6.95 530.46-7.9L530.46-7.9 530.81-9.85 528.76-9.85 529.76-15.55 539.86-15.55ZM496.01-12.05L515.96-12.05Q515.76-10.5 515.71-9.95L515.71-9.95 496.01-12.05ZM496.91-16.85L516.91-16.85 516.46-14.75 496.91-16.85ZM496.21-7.25L515.66-7.25Q515.66-6.45 515.86-5.15L515.86-5.15 496.21-7.25ZM498.91-21.65L518.66-21.65Q518.06-20.35 517.81-19.65L517.81-19.65 498.91-21.65ZM500.56-2.4L516.71-2.4Q517.31-1.2 518.01-0.55L518.01-0.55 500.56-2.4ZM505.61-26.45L523.01-26.45Q521.81-25.75 520.96-24.8L520.96-24.8 505.61-26.45ZM574.56 0L566.16 0 567.71-9.15 562.11-9.15 560.51 0 552.11 0 556.71-26.45 565.16-26.45 563.51-17.3 569.16-17.3 570.76-26.45 579.21-26.45 574.56 0ZM550.86-2.4L550.46-0.15 529.26-2.4 550.86-2.4ZM552.56-12.05L552.16-9.8 530.96-12.05 552.56-12.05ZM553.41-16.85L553.01-14.6 531.81-16.85 553.41-16.85ZM554.26-21.65L553.86-19.4 532.66-21.65 554.26-21.65ZM555.06-26.45L554.71-24.2 533.51-26.45 555.06-26.45ZM551.71-7.25L551.31-5 530.11-7.25 551.71-7.25ZM613.21-26.45L611.86-18.95 606.46-18.95 603.15 0 594.36 0 597.65-18.95 592.11-18.95 593.46-26.45 613.21-26.45ZM593.25-2.4L592.86-0.15 571.65-2.4 593.25-2.4ZM594.96-12.05L594.55-9.8 573.36-12.05 594.96-12.05ZM595.8-16.85L595.4-14.6 574.21-16.85 595.8-16.85ZM591-21.65L590.61-19.4 569.4-21.65 591-21.65ZM591.8-26.45L591.46-24.2 570.25-26.45 591.8-26.45ZM594.11-7.25L593.71-5 572.5-7.25 594.11-7.25ZM620.65-0.15L599.75-2.4 621.35-2.4 620.65-0.15ZM603.6-21.65L625.15-21.65Q624.85-20.85 624.5-19.4L624.5-19.4 603.6-21.65ZM623.9-15L623.9-15 623.9-14.6 602.7-16.85 624-16.85Q623.9-15.65 623.9-15ZM622.95-7.25L622.25-5.05 601.4-7.25 622.95-7.25ZM607.05-26.45L628.6-26.45Q627.25-25.45 626.55-24.35L626.55-24.35 607.05-26.45ZM604.65-12.05L624.35-12.05Q624.8-10.75 625.8-9.8L625.8-9.8 604.65-12.05ZM646.7-25.9L644.3-18.6Q640.9-19.4 638.5-19.4 636.1-19.4 634.95-19.25L634.95-19.25 634.7-17.8 637.2-17.5Q645.25-16.45 645.25-10.85L645.25-10.85Q645.25-10.2 644.95-8.43 644.65-6.65 643.95-5 643.25-3.35 642.18-2.33 641.1-1.3 640.08-0.68 639.05-0.05 637.45 0.2L637.45 0.2Q634.95 0.6 630.78 0.6 626.6 0.6 622.35-0.55L622.35-0.55 624.8-7.95Q628.7-6.85 631.63-6.85 634.55-6.85 635.75-7L635.75-7 636-8.6 632.85-8.95Q628.8-9.4 627.1-10.85 625.4-12.3 625.4-15L625.4-15Q625.4-16 625.65-17.5L625.65-17.5Q626.65-22.85 629.25-24.9 631.85-26.95 637.18-26.95 642.5-26.95 646.7-25.9L646.7-25.9ZM659.65-12.05L659.4-9.8 638.25-12.05 659.65-12.05ZM660.15-16.85L659.9-14.6 639.1-16.85 660.15-16.85ZM660.7-21.65L660.45-19.4 639.95-21.65 660.7-21.65ZM661.2-26.45L660.95-24.2 640.8-26.45 661.2-26.45ZM656.95-2.4L656.95-2.2Q656.95-1.05 657.35-0.15L657.35-0.15 636.55-2.4 656.95-2.4ZM637.4-7.25L658.7-7.25Q657.85-6.35 657.4-5.1L657.4-5.1 637.4-7.25ZM665.15-31.25L665.15-31.25 672.55-31.25Q674.1-31.25 674.1-30.25L674.1-30.25Q674.1-30 674.05-29.9L674.05-29.9 668.8-8.5 660.75-8.5 663.1-29.9Q663.3-31.25 665.15-31.25ZM658.45-2.2L658.45-2.2Q658.45-5.05 660-6.25 661.55-7.45 664.4-7.45 667.25-7.45 668.3-6.83 669.35-6.2 669.35-4.8L669.35-4.8Q669.35-2 668.02-0.83 666.7 0.35 663.62 0.35 660.55 0.35 659.5-0.23 658.45-0.8 658.45-2.2Z" opacity="1" transform="matrix(1,0,0,1,0,0)" fill="#ffffff" class="slogan-text-1" data-fill-palette-color="secondary" id="text-1"></path></svg></g></svg></g></svg></g></svg></g><g transform="matrix(1,0,0,1,0,16.263304894646097)"><svg viewBox="0 0 68.58089923606566 72.737499561168" height="72.737499561168" width="68.58089923606566"><g><svg xmlns="http://www.w3.org/2000/svg" xmlns:xlink="http://www.w3.org/1999/xlink" version="1.1" x="0" y="0" viewBox="9.956999778747559 8.63599967956543 79.54299926757812 84.36399841308594" enable-background="new 0 0 100 100" xml:space="preserve" height="72.737499561168" width="68.58089923606566" class="icon-icon-0" data-fill-palette-color="accent" id="icon-0"><g fill="#ffdc00" data-fill-palette-color="accent"><g fill="#ffdc00" data-fill-palette-color="accent"><path d="M13.572 36.355c-1.997 0-3.615 1.62-3.615 3.616v21.694c0 1.997 1.618 3.615 3.615 3.615 1.998 0 3.616-1.618 3.616-3.615V39.971C17.188 37.976 15.57 36.355 13.572 36.355zM25.625 20.688c-1.997 0-3.615 1.619-3.615 3.616v53.029c0 1.997 1.618 3.615 3.615 3.615 1.998 0 3.616-1.618 3.616-3.615V24.304C29.24 22.308 27.622 20.688 25.625 20.688zM37.677 8.636c-1.997 0-3.616 1.619-3.616 3.616v77.133c0 1.997 1.619 3.615 3.616 3.615s3.616-1.618 3.616-3.615V12.252C41.292 10.255 39.674 8.636 37.677 8.636zM49.729 29.728c-1.997 0-3.616 1.619-3.616 3.615v34.951c0 1.997 1.619 3.615 3.616 3.615 1.996 0 3.615-1.618 3.615-3.615V33.343C53.344 31.347 51.725 29.728 49.729 29.728zM61.78 8.636c-1.996 0-3.615 1.619-3.615 3.616v77.133c0 1.997 1.619 3.615 3.615 3.615s3.615-1.618 3.615-3.615V12.252C65.396 10.255 63.776 8.636 61.78 8.636zM73.833 26.714c-1.996 0-3.615 1.619-3.615 3.616v40.976c0 1.998 1.619 3.617 3.615 3.617 1.995 0 3.615-1.619 3.615-3.617V30.33C77.448 28.333 75.828 26.714 73.833 26.714zM85.885 36.958c-1.996 0-3.616 1.62-3.616 3.616v20.489c0 1.997 1.62 3.615 3.616 3.615S89.5 63.06 89.5 61.062V40.574C89.5 38.578 87.881 36.958 85.885 36.958z" fill="#ffffff" data-fill-palette-color="accent"></path></g></g></svg></g></svg></g></svg></g></svg></g></svg></g></svg></g><defs></defs></svg><rect width="395.52" height="247.2" fill="none" stroke="none" visibility="hidden"></rect></g></svg></g></svg>